<svg width="26" height="24" viewBox="0 0 26 24" fill="none" xmlns="http://www.w3.org/2000/svg">
<path d="M11.5205 20C13.8608 19.9995 16.1337 19.2568 17.9772 17.89L23.7733 23.385L25.6376 21.6175L19.8415 16.1225C21.284 14.3746 22.0679 12.2193 22.0685 10C22.0685 4.48625 17.3364 0 11.5205 0C5.70467 0 0.972595 4.48625 0.972595 10C0.972595 15.5137 5.70467 20 11.5205 20ZM11.5205 2.5C15.8834 2.5 19.4315 5.86375 19.4315 10C19.4315 14.1362 15.8834 17.5 11.5205 17.5C7.15765 17.5 3.60958 14.1362 3.60958 10C3.60958 5.86375 7.15765 2.5 11.5205 2.5Z" fill="black"/>
</svg>
